<svg xmlns="http://www.w3.org/2000/svg" viewBox="0 0 512 512" role="img" aria-label="Battle Notebook app icon"><rect width="512" height="512" rx="108" fill="#164f3b"/><path d="M0 388c120-78 270-78 512 0v124H0z" fill="#1d6b4e"/><path d="M28 370c132-70 286-70 456 0" fill="none" stroke="#8ec8ab" stroke-width="14" opacity=".55"/><rect x="137" y="84" width="246" height="336" rx="30" fill="#f8faf7" stroke="#10251d" stroke-width="14"/><rect x="156" y="84" width="35" height="336" rx="16" fill="#dce7df"/><g fill="#dce7df" stroke="#10251d" stroke-width="8"><rect x="112" y="118" width="72" height="20" rx="10"/><rect x="112" y="171" width="72" height="20" rx="10"/><rect x="112" y="224" width="72" height="20" rx="10"/><rect x="112" y="277" width="72" height="20" rx="10"/><rect x="112" y="330" width="72" height="20" rx="10"/></g><path d="M315 84h50v98l-25-19-25 19z" fill="#2f8d62"/><circle cx="274" cy="268" r="78" fill="#fff" stroke="#10251d" stroke-width="16"/><path d="M196 268h156" stroke="#10251d" stroke-width="16"/><path d="M274 190a78 78 0 0 1 78 78h-78z" fill="#2f8d62"/><circle cx="274" cy="268" r="28" fill="#f8faf7" stroke="#10251d" stroke-width="14"/><circle cx="274" cy="268" r="9" fill="#2f8d62"/><path d="M403 161l27 8-74 239-27-8z" fill="#e7eee9" stroke="#10251d" stroke-width="9"/><path d="M356 408l-18 22 3-28z" fill="#10251d"/></svg>